<?xml version="1.0" encoding="UTF-8" standalone="no"?>
<!-- Created with Inkscape (http://www.inkscape.org/) -->

<svg
   xmlns:dc="http://purl.org/dc/elements/1.1/"
   xmlns:cc="http://creativecommons.org/ns#"
   xmlns:rdf="http://www.w3.org/1999/02/22-rdf-syntax-ns#"
   xmlns:svg="http://www.w3.org/2000/svg"
   xmlns="http://www.w3.org/2000/svg"
   xmlns:sodipodi="http://sodipodi.sourceforge.net/DTD/sodipodi-0.dtd"
   xmlns:inkscape="http://www.inkscape.org/namespaces/inkscape"
   version="1.1"
   id="svg7033"
   xml:space="preserve"
   width="800"
   height="800"
   viewBox="0 0 800 800"
   sodipodi:docname="football-wings-logotype-vector-pdv.svg"
   inkscape:version="0.92.4 (5da689c313, 2019-01-14)"><metadata
     id="metadata7039"><rdf:RDF><cc:Work
         rdf:about=""><dc:format>image/svg+xml</dc:format><dc:type
           rdf:resource="http://purl.org/dc/dcmitype/StillImage" /><dc:title></dc:title></cc:Work></rdf:RDF></metadata><defs
     id="defs7037"><clipPath
       clipPathUnits="userSpaceOnUse"
       id="clipPath7049"><path
         d="M 0,600 H 600 V 0 H 0 Z"
         id="path7047"
         inkscape:connector-curvature="0" /></clipPath></defs><sodipodi:namedview
     pagecolor="#ffffff"
     bordercolor="#666666"
     borderopacity="1"
     objecttolerance="10"
     gridtolerance="10"
     guidetolerance="10"
     inkscape:pageopacity="0"
     inkscape:pageshadow="2"
     inkscape:window-width="1920"
     inkscape:window-height="1018"
     id="namedview7035"
     showgrid="false"
     inkscape:zoom="0.89129893"
     inkscape:cx="398.30508"
     inkscape:cy="408.47458"
     inkscape:window-x="-8"
     inkscape:window-y="-8"
     inkscape:window-maximized="1"
     inkscape:current-layer="g7041" /><g
     id="g7041"
     inkscape:groupmode="layer"
     inkscape:label="football-wings-logotype-vector-pdv"
     transform="matrix(1.3333333,0,0,-1.3333333,0,800)"><g
       id="g7043"><g
         id="g7045"
         clip-path="url(#clipPath7049)"><path
           d="m 341.694,348.97 -1.421,1.235 0.423,-1.835 -1.616,-0.97 1.897,-0.198 0.433,-1.853 0.741,1.724 1.88,-0.17 -1.44,1.269 0.719,1.766 z m -19.474,-20.119 1.684,4.136 -3.786,-2.268 -3.329,2.897 0.989,-4.302 -3.785,-2.272 4.445,-0.465 1.013,-4.342 1.74,4.041 4.405,-0.396 z m -33.871,-12.491 0.433,-1.853 0.741,1.725 1.879,-0.17 -1.439,1.269 0.719,1.765 -1.616,-0.968 -1.421,1.235 0.421,-1.834 -1.615,-0.97 z m -51.903,-4.508 1.033,-4.423 1.772,4.114 4.485,-0.404 -3.436,3.029 1.714,4.213 -3.854,-2.313 -3.391,2.952 1.005,-4.381 -3.855,-2.313 z m 42.35,27.791 0.433,-1.854 0.743,1.724 1.879,-0.169 -1.44,1.268 0.718,1.767 -1.616,-0.969 -1.421,1.236 0.424,-1.835 -1.618,-0.97 z m 74.915,51.685 -4.406,3.833 1.305,-5.687 -5.005,-3.007 5.881,-0.616 1.341,-5.743 2.301,5.345 5.823,-0.524 -4.462,3.931 2.226,5.473 z m 32.875,12.45 0.433,-1.852 0.741,1.724 1.879,-0.17 -1.44,1.269 0.718,1.765 -1.614,-0.969 -1.422,1.237 0.422,-1.836 -1.615,-0.969 z m 59.081,-24.85 -1.615,-0.97 1.896,-0.198 0.433,-1.853 0.742,1.725 1.879,-0.17 -1.439,1.268 0.717,1.766 -1.614,-0.969 -1.422,1.237 z m -72.102,-52.9 0.62,-2.671 1.072,2.501 2.719,-0.243 -2.075,1.818 1.052,2.537 -2.338,-1.403 -2.057,1.79 0.611,-2.657 -2.337,-1.403 z m -97.517,-47.131 0.807,-3.491 1.401,3.28 3.558,-0.318 -2.706,2.367 1.384,3.308 -3.06,-1.837 -2.694,2.344 0.801,-3.478 -3.06,-1.838 z m -10.367,69.443 0.809,-3.491 1.402,3.277 3.557,-0.317 -2.706,2.368 1.385,3.308 -3.063,-1.837 -2.692,2.344 0.8,-3.478 -3.062,-1.838 z m 50.533,49.02 0.807,-3.492 1.401,3.279 3.558,-0.317 -2.706,2.368 1.385,3.307 -3.061,-1.836 -2.694,2.344 0.8,-3.48 -3.061,-1.837 z m -14.178,-24.019 0.809,-3.492 1.4,3.278 3.56,-0.316 -2.706,2.367 1.382,3.309 -3.061,-1.838 -2.693,2.345 0.8,-3.48 -3.061,-1.838 z m 15.334,-85.105 0.809,-3.492 1.4,3.279 3.559,-0.317 -2.706,2.367 1.384,3.309 -3.062,-1.837 -2.693,2.345 0.801,-3.48 -3.062,-1.837 z m 35.046,73.112 1.347,-5.837 2.341,5.493 5.956,-0.529 -4.522,3.947 2.327,5.521 -5.126,-3.073 -4.507,3.923 1.34,-5.823 -5.124,-3.073 z m 22.235,66.499 0.995,-4.31 1.732,4.057 4.396,-0.391 -3.338,2.916 1.717,4.079 -3.786,-2.27 -3.328,2.898 0.989,-4.302 -3.785,-2.272 z m -9.051,-23.933 1.183,-5.13 2.06,4.836 5.237,-0.464 -3.973,3.465 2.051,4.849 -4.508,-2.704 -3.964,3.451 1.178,-5.123 -4.508,-2.705 z m -43.199,-23.519 -5.231,-3.139 6.082,-0.543 1.371,-5.95 2.387,5.613 6.079,-0.539 -4.606,4.016 2.384,5.62 -5.233,-3.139 -4.601,4.006 z m -32.808,-29.402 1.278,-5.551 2.229,5.239 5.673,-0.5 -4.296,3.741 2.226,5.243 -4.883,-2.929 -4.294,3.736 1.276,-5.548 -4.883,-2.928 z m -45.095,-23.513 1.747,-7.587 3.048,7.167 7.757,-0.686 -5.872,5.112 3.049,7.163 -6.679,-4.004 -5.872,5.111 1.745,-7.587 -6.678,-4.007 z m 93.815,75.296 0.175,-2.647 1.386,2.262 2.576,-0.626 -1.718,2.016 1.4,2.252 -2.375,-1.002 -1.636,2.033 0.2,-2.651 -2.544,-1.015 z m 65.657,-23.186 1.427,2.186 -2.459,-1.009 -1.719,2.027 0.199,-2.649 -2.459,-1.01 2.55,-0.549 0.181,-2.61 1.389,2.283 2.579,-0.619 z m 18.195,-21.766 2.445,-0.68 0.13,-2.677 1.362,2.25 2.565,-0.634 -1.743,2.062 1.376,2.297 -2.154,-0.985 -1.415,2.05 0.202,-2.651 z m -22.737,-4.041 0.255,-3.78 2.005,3.304 3.73,-0.896 -2.444,2.824 2.066,3.161 -3.52,-1.458 -2.453,2.938 0.29,-3.839 -3.599,-1.463 z m -21.389,-5.045 2.69,4.179 -4.661,-1.913 -3.26,3.844 0.38,-5.025 -4.662,-1.913 4.848,-1.078 0.355,-4.968 2.636,4.315 4.89,-1.179 z m -19.899,-11.812 3.353,5.1 -5.762,-2.364 -4.028,4.75 0.467,-6.21 -5.761,-2.364 5.963,-1.262 0.425,-6.106 3.249,5.354 6.042,-1.447 z m -10.029,88.199 0.335,-4.505 2.377,3.86 4.4,-1.068 -2.919,3.429 2.387,3.832 -4.191,-1.72 -2.93,3.456 0.341,-4.518 -4.191,-1.719 z m 2.34,-118.957 0.335,-4.504 2.378,3.857 4.4,-1.067 -2.92,3.43 2.387,3.832 -4.19,-1.72 -2.93,3.455 0.341,-4.517 -4.191,-1.72 z m -20.87,16.02 4.291,-0.804 0.284,-4.382 2.353,3.921 4.387,-1.038 -2.827,3.201 2.483,3.603 -4.191,-1.719 -2.93,3.454 0.34,-4.516 z m -10.328,-12.633 4.547,7.263 -7.964,-3.268 -5.569,6.564 0.647,-8.584 -7.964,-3.267 8.335,-1.972 0.635,-8.551 4.516,7.342 8.36,-2.03 z m -33.133,-18.096 3.169,5.171 5.873,-1.42 -3.878,4.525 3.215,5.061 -5.598,-2.297 -3.914,4.614 0.455,-6.033 -5.597,-2.298 5.84,-1.338 z m -37.517,1.611 0.745,-9.824 5.169,8.358 9.554,-2.333 -6.375,7.533 5.153,8.401 -9.098,-3.733 -6.359,7.498 0.738,-9.805 -9.096,-3.732 z m 150.065,127.688 0.395,-4.62 2.48,3.997 4.55,-1.093 -2.986,3.493 2.488,3.906 -4.564,-1.793 -3.261,3.547 0.35,-4.66 -4.082,-1.756 z m 14.649,17.114 0.249,-3.024 1.617,2.617 2.976,-0.717 -1.955,2.286 1.628,2.557 -2.949,-1.171 -2.097,2.325 0.231,-3.052 -2.711,-1.151 z m 25.484,-24.455 0.375,-4.519 2.347,3.717 4.313,-1.073 -2.943,3.567 2.249,3.96 -4.098,-1.682 -2.865,3.378 0.334,-4.416 -4.098,-1.682 z m -23.756,-21.719 3.054,4.915 5.637,-1.383 -3.78,4.493 3.018,5.004 -5.365,-2.201 -3.75,4.421 0.436,-5.781 -5.365,-2.201 5.664,-1.447 z m -31.688,-11.777 3.679,6.313 -6.632,-2.72 -4.634,5.466 0.537,-7.148 -6.631,-2.722 7.057,-1.924 0.585,-7.261 3.789,6.042 6.976,-1.726 z m -58.045,-25.965 4.898,7.919 -8.62,-3.537 -6.027,7.105 0.7,-9.289 -8.618,-3.538 9.047,-2.196 0.7,-9.286 4.891,7.929 9.052,-2.203 z m -27.107,-33.053 3.195,5.167 5.909,-1.442 -3.941,4.656 3.186,5.192 -5.624,-2.309 -3.934,4.637 0.457,-6.063 -5.624,-2.307 5.915,-1.459 z m -29.924,4.615 -4.871,5.743 0.566,-7.512 -6.967,-2.858 7.406,-2.002 0.611,-7.619 3.981,6.352 7.327,-1.809 -4.956,5.949 3.872,6.615 z m -50.046,-18.466 0.555,-7.298 3.84,6.206 7.098,-1.732 -4.737,5.597 3.825,6.245 -6.756,-2.772 -4.726,5.568 0.55,-7.281 -6.758,-2.774 z m 317.854,36.442 c 0,0 -52.641,-41.318 -67.842,-50.211 -0.39,-0.73 -0.758,-1.429 -1.115,-2.107 0.422,0.219 0.851,0.442 1.297,0.68 1.331,0.733 2.789,1.494 4.303,2.361 1.521,0.857 3.127,1.756 4.77,2.725 1.652,0.953 3.347,1.959 5.065,2.993 1.725,1.02 3.451,2.101 5.19,3.163 1.726,1.084 3.452,2.168 5.151,3.234 1.68,1.094 3.355,2.144 4.943,3.207 1.593,1.053 3.134,2.073 4.574,3.07 1.454,0.98 2.804,1.938 4.048,2.827 1.256,0.874 2.359,1.734 3.36,2.473 0.998,0.741 1.815,1.443 2.519,1.994 0.697,0.559 1.193,1.06 1.555,1.371 0.356,0.323 0.545,0.494 0.545,0.494 0,0 -0.177,-0.185 -0.507,-0.532 -0.339,-0.337 -0.797,-0.871 -1.453,-1.479 -0.66,-0.601 -1.439,-1.37 -2.383,-2.184 -0.947,-0.809 -1.993,-1.757 -3.186,-2.719 -1.181,-0.981 -2.465,-2.04 -3.848,-3.125 -1.371,-1.102 -2.84,-2.234 -4.361,-3.404 -1.514,-1.181 -3.112,-2.352 -4.719,-3.57 -1.625,-1.192 -3.276,-2.402 -4.926,-3.614 -1.667,-1.189 -3.32,-2.399 -4.978,-3.548 -1.649,-1.162 -3.278,-2.297 -4.87,-3.375 -1.581,-1.093 -3.137,-2.117 -4.608,-3.093 -1.465,-0.985 -2.891,-1.865 -4.187,-2.704 -1.309,-0.825 -2.532,-1.557 -3.607,-2.219 -1.105,-0.633 -2.068,-1.184 -2.862,-1.639 -0.11,-0.058 -0.209,-0.11 -0.312,-0.165 -1.191,-2.37 -1.83,-3.711 -1.83,-3.711 0,0 77.411,41.959 74.274,62.807 m -13.334,-30.955 c 0,0 -47.553,-32.643 -61.928,-39.978 -1.047,-1.343 -1.956,-2.564 -2.767,-3.689 0.661,0.314 1.356,0.643 2.089,0.99 1.318,0.655 2.755,1.34 4.258,2.108 1.505,0.764 3.097,1.563 4.728,2.425 1.636,0.846 3.321,1.739 5.025,2.659 1.713,0.907 3.43,1.867 5.157,2.812 1.715,0.967 3.432,1.933 5.121,2.885 1.67,0.979 3.335,1.914 4.913,2.873 1.584,0.946 3.116,1.864 4.545,2.77 1.445,0.882 2.781,1.759 4.016,2.571 1.248,0.793 2.332,1.599 3.324,2.276 0.984,0.689 1.786,1.349 2.482,1.864 0.68,0.53 1.163,1.011 1.517,1.309 0.347,0.307 0.532,0.47 0.532,0.47 0,0 -0.172,-0.177 -0.495,-0.509 -0.331,-0.322 -0.776,-0.838 -1.418,-1.417 -0.651,-0.564 -1.416,-1.298 -2.351,-2.06 -0.94,-0.751 -1.973,-1.645 -3.161,-2.531 -1.176,-0.906 -2.453,-1.886 -3.834,-2.879 -1.365,-1.014 -2.83,-2.049 -4.348,-3.114 -1.51,-1.081 -3.104,-2.141 -4.708,-3.249 -1.622,-1.08 -3.268,-2.178 -4.916,-3.274 -1.66,-1.077 -3.312,-2.169 -4.962,-3.207 -1.641,-1.051 -3.264,-2.075 -4.845,-3.048 -1.575,-0.989 -3.117,-1.911 -4.574,-2.795 -1.457,-0.887 -2.859,-1.69 -4.141,-2.449 -1.299,-0.74 -2.492,-1.416 -3.547,-2.017 -1.075,-0.581 -2.014,-1.087 -2.787,-1.504 -1.111,-0.558 -1.881,-0.943 -2.251,-1.129 -0.677,-1.242 -0.921,-1.858 -0.921,-1.858 0,0 69.261,30.232 70.247,52.695 m -7.204,-24.526 c 0,0 -35.557,-21.897 -60.916,-34.32 -0.886,-1.012 -1.672,-1.974 -2.375,-2.885 0.607,0.263 1.244,0.54 1.914,0.83 1.258,0.541 2.62,1.133 4.047,1.803 1.431,0.659 2.941,1.354 4.503,2.072 1.553,0.739 3.161,1.504 4.792,2.281 1.63,0.783 3.294,1.563 4.938,2.385 1.649,0.813 3.297,1.627 4.92,2.426 1.628,0.795 3.207,1.618 4.748,2.391 3.084,1.547 5.935,3.035 8.379,4.316 2.453,1.262 4.468,2.38 5.886,3.142 1.417,0.767 2.225,1.205 2.225,1.205 0,0 -0.771,-0.502 -2.122,-1.38 -1.354,-0.872 -3.268,-2.146 -5.618,-3.602 -2.337,-1.475 -5.07,-3.192 -8.024,-4.983 -1.477,-0.895 -2.99,-1.844 -4.551,-2.768 -1.559,-0.93 -3.142,-1.875 -4.724,-2.819 -1.579,-0.955 -3.18,-1.869 -4.75,-2.784 -1.572,-0.909 -3.12,-1.804 -4.618,-2.671 -1.512,-0.847 -2.973,-1.666 -4.356,-2.443 -1.379,-0.788 -2.709,-1.497 -3.941,-2.147 -1.229,-0.656 -2.356,-1.255 -3.356,-1.788 -1.011,-0.52 -1.928,-0.941 -2.667,-1.305 -0.895,-0.432 -1.555,-0.75 -1.942,-0.938 -1.027,-2.101 -1.266,-3.274 -1.266,-3.274 0,0 61.58,23.877 68.874,47.256 m -14.35,-24.276 c 0,0 -42.026,-23.611 -54.278,-28.614 -0.596,-0.624 -1.145,-1.221 -1.673,-1.805 0.153,0.06 0.304,0.119 0.459,0.18 1.208,0.473 2.516,0.988 3.889,1.566 1.376,0.571 2.827,1.172 4.328,1.793 1.494,0.644 3.038,1.308 4.604,1.984 1.57,0.675 3.162,1.364 4.74,2.088 1.582,0.716 3.164,1.43 4.72,2.134 1.545,0.73 3.066,1.448 4.537,2.144 1.468,0.704 2.905,1.357 4.225,2.041 1.332,0.672 2.592,1.308 3.755,1.893 0.582,0.294 1.139,0.574 1.67,0.841 0.522,0.286 1.017,0.555 1.483,0.809 0.931,0.509 1.741,0.951 2.41,1.315 1.338,0.73 2.101,1.147 2.101,1.147 0,0 -0.726,-0.48 -1.995,-1.319 -0.636,-0.42 -1.406,-0.93 -2.291,-1.515 -0.443,-0.291 -0.912,-0.603 -1.409,-0.931 -0.506,-0.311 -1.04,-0.639 -1.597,-0.982 -1.113,-0.685 -2.321,-1.428 -3.598,-2.214 -1.27,-0.801 -2.646,-1.573 -4.055,-2.402 -1.414,-0.821 -2.874,-1.669 -4.36,-2.532 -1.499,-0.837 -3.021,-1.686 -4.545,-2.536 -1.518,-0.86 -3.054,-1.685 -4.57,-2.496 -1.514,-0.81 -3.006,-1.608 -4.448,-2.381 -1.454,-0.752 -2.861,-1.478 -4.194,-2.168 -1.33,-0.698 -2.603,-1.33 -3.782,-1.909 -1.178,-0.584 -2.256,-1.118 -3.213,-1.591 -0.971,-0.456 -1.819,-0.853 -2.517,-1.18 -1.084,-0.505 -1.803,-0.84 -2.075,-0.966 -1.172,-1.73 -1.668,-2.709 -1.668,-2.709 0,0 58.282,21.8 63.347,40.315 M 488.02,240.036 c -24.398,-10.681 -35.238,-16.246 -48.542,-21.495 -2.045,-1.816 -3.802,-3.398 -5.259,-4.725 1.079,0.425 2.243,0.844 3.449,1.384 1.325,0.569 2.721,1.168 4.166,1.788 1.445,0.621 2.94,1.263 4.458,1.914 1.517,0.658 3.068,1.305 4.601,1.988 3.057,1.385 6.116,2.77 8.984,4.068 1.435,0.651 2.824,1.279 4.14,1.877 1.304,0.624 2.536,1.216 3.673,1.762 4.549,2.189 7.581,3.65 7.581,3.65 0,0 -2.892,-1.719 -7.229,-4.298 -1.086,-0.643 -2.262,-1.339 -3.505,-2.076 -1.261,-0.71 -2.591,-1.458 -3.966,-2.232 -2.754,-1.552 -5.692,-3.206 -8.631,-4.861 -1.473,-0.817 -2.965,-1.601 -4.424,-2.39 -1.463,-0.786 -2.902,-1.559 -4.294,-2.308 -0.603,-0.323 -1.192,-0.639 -1.775,-0.953 15.449,5.401 40.701,15.684 46.573,26.907 m -59.665,-25.952 c -22.209,-8.766 -41.036,-18.024 -52.473,-25.912 4.982,2.33 10.886,4.9 16.785,7.483 7.573,3.306 15.115,6.651 20.675,9.371 1.39,0.68 2.657,1.316 3.773,1.894 1.114,0.582 2.086,1.094 2.871,1.536 0.792,0.434 1.406,0.792 1.822,1.039 0.418,0.244 0.64,0.375 0.64,0.375 0,0 -0.213,-0.145 -0.612,-0.42 -0.398,-0.275 -0.983,-0.677 -1.745,-1.166 -0.754,-0.501 -1.689,-1.081 -2.763,-1.742 -1.074,-0.658 -2.297,-1.386 -3.64,-2.165 -5.368,-3.119 -12.679,-7.007 -20,-10.845 -7.314,-3.843 -14.638,-7.672 -19.912,-10.777 -0.124,-0.072 -0.24,-0.143 -0.362,-0.214 50.85,20.351 54.941,31.543 54.941,31.543 m -17.776,-19.653 c -11.606,-3.103 -11.706,-5.056 -11.706,-5.056 0,0 20.514,2.318 31.292,6.847 0,0 -11.272,0.093 -19.586,-1.791 M 388.696,181.82 c -11.973,-0.992 -12.417,-2.897 -12.417,-2.897 0,0 20.6,-1.36 32.01,1.183 0,0 -11.075,2.094 -19.593,1.714 m -16.688,-6.868 c -9.057,2.153 -9.843,0.857 -9.843,0.857 0,0 14.843,-5.965 23.859,-6.842 0,0 -7.652,4.211 -14.016,5.985 m -8.378,21.151 -7.569,-1.203 c -0.174,-0.214 -0.361,-0.425 -0.545,-0.636 l 4.915,-3.285 1.133,-0.756 -0.946,-0.905 c -1.21,-1.155 -2.415,-2.275 -3.656,-3.375 -0.617,-0.547 -1.23,-1.103 -1.863,-1.637 -0.63,-0.536 -1.252,-1.079 -1.888,-1.609 l -1.924,-1.569 c -0.634,-0.532 -1.309,-1.016 -1.962,-1.525 l -0.986,-0.755 c -0.323,-0.258 -0.675,-0.483 -1.012,-0.725 l -1.833,-1.286 -0.607,-2.511 -0.338,-1.388 -0.403,-1.373 -0.4,-1.37 c -0.138,-0.456 -0.261,-0.916 -0.409,-1.367 l -0.906,-2.706 c -0.287,-0.905 -0.644,-1.788 -0.966,-2.682 -0.321,-0.893 -0.664,-1.778 -1.024,-2.658 -0.346,-0.883 -0.708,-1.761 -1.085,-2.632 -0.35,-0.835 -0.724,-1.66 -1.105,-2.484 l 3.931,-3.703 c 12.253,11.503 19.982,27.26 21.448,44.14 m -21.543,-44.229 -4.175,3.613 -0.096,0.083 0.053,0.126 c 0.359,0.87 0.712,1.749 1.039,2.635 0.341,0.881 0.663,1.77 0.971,2.663 0.319,0.89 0.623,1.783 0.905,2.685 0.283,0.901 0.6,1.79 0.847,2.701 l 0.785,2.719 c 0.128,0.454 0.23,0.914 0.347,1.37 l 0.34,1.372 0.339,1.37 0.276,1.384 0.547,2.764 0.048,0.247 0.224,0.171 1.939,1.486 c 0.318,0.251 0.651,0.484 0.96,0.752 l 0.939,0.784 c 0.621,0.528 1.263,1.029 1.865,1.581 l 1.831,1.626 c 0.606,0.548 1.198,1.111 1.796,1.666 0.602,0.552 1.184,1.126 1.771,1.693 0.847,0.817 1.679,1.654 2.5,2.493 l -4.322,2.63 c -4.19,-4.016 -9.799,-7.196 -13.024,-8.7 -0.792,-5.893 -3.001,-17.95 -8.723,-29.951 1.174,-1.254 3.53,-3.845 5.158,-6.107 1.691,1.308 3.309,2.695 4.86,4.144 m -12.841,2.032 c 5.894,11.929 8.18,24.352 8.988,30.248 -2.799,2.367 -9.498,8.696 -13.967,13.008 -0.093,-0.101 -0.187,-0.201 -0.28,-0.303 -0.739,-0.814 -1.476,-1.633 -2.175,-2.478 -0.172,-0.212 -0.346,-0.425 -0.501,-0.644 l -0.111,-0.165 c -0.021,-0.048 -0.053,-0.071 -0.07,-0.148 0,0.014 0.016,-0.009 0.014,-0.014 l 0.043,-0.076 c 0.027,-0.053 0.069,-0.108 0.106,-0.161 0.311,-0.437 0.675,-0.855 1.03,-1.272 1.443,-1.655 2.947,-3.263 4.45,-4.87 l 4.55,-4.783 0.117,-0.123 -0.039,-0.171 -5.027,-21.681 -0.063,-0.275 -0.264,-0.12 c -0.917,-0.417 -1.823,-0.822 -2.744,-1.211 -0.918,-0.387 -1.833,-0.784 -2.763,-1.146 -0.929,-0.364 -1.847,-0.758 -2.785,-1.095 l -2.809,-1.04 -2.844,-0.952 c -0.475,-0.157 -0.946,-0.327 -1.431,-0.455 l -1.444,-0.416 -1.447,-0.417 c -0.478,-0.15 -0.973,-0.252 -1.465,-0.362 l -2.953,-0.66 -0.346,-0.077 -0.304,0.224 -1.755,1.293 c -0.578,0.44 -1.118,0.915 -1.68,1.372 -0.566,0.452 -1.085,0.948 -1.621,1.427 -0.535,0.484 -1.069,0.966 -1.576,1.473 l -1.538,1.505 -1.496,1.543 c -0.503,0.51 -0.977,1.044 -1.466,1.566 -0.488,0.524 -0.973,1.05 -1.443,1.587 -0.957,1.063 -1.89,2.145 -2.818,3.231 -0.92,1.091 -1.838,2.186 -2.733,3.296 -0.22,0.272 -0.431,0.546 -0.649,0.817 -0.674,-1.672 -1.317,-3.279 -1.886,-4.752 3.705,-5.181 11.138,-14.392 20.772,-20.319 11.432,2.848 22.051,6.182 26.423,7.596 m -28.79,-9.146 c -9.934,6.41 -17.327,15.803 -20.878,20.881 -1.358,-0.043 -2.964,0.009 -4.7,0.14 l 0.262,-0.755 c 0.268,-0.654 0.551,-1.303 0.885,-1.928 0.154,-0.319 0.335,-0.623 0.514,-0.929 0.175,-0.308 0.351,-0.614 0.549,-0.91 0.373,-0.602 0.781,-1.181 1.189,-1.759 0.425,-0.567 0.844,-1.139 1.296,-1.686 0.439,-0.555 0.906,-1.089 1.365,-1.628 1.875,-2.127 3.891,-4.128 5.996,-6.03 1.048,-0.952 2.122,-1.88 3.213,-2.784 1.091,-0.9 2.205,-1.79 3.332,-2.628 l 0.278,-0.206 -0.138,-0.311 -0.57,-1.291 c -0.188,-0.433 -0.422,-0.838 -0.632,-1.26 l -1.291,-2.504 -0.099,-0.193 -0.225,-0.043 -1.12,-0.222 -1.13,-0.138 c -0.753,-0.057 -1.509,-0.093 -2.261,-0.075 -0.377,-0.006 -0.75,0.021 -1.125,0.043 -0.376,0.019 -0.75,0.042 -1.121,0.085 -0.747,0.064 -1.485,0.175 -2.225,0.281 -0.734,0.129 -1.471,0.251 -2.197,0.414 -0.731,0.146 -1.452,0.329 -2.175,0.505 -0.719,0.189 -1.437,0.378 -2.148,0.592 -0.716,0.2 -1.42,0.431 -2.127,0.654 -2.82,0.923 -5.59,1.986 -8.31,3.154 -1.36,0.584 -2.71,1.193 -4.049,1.828 -1.34,0.635 -2.66,1.285 -3.989,1.994 l -0.267,0.141 -0.14,0.305 -2.977,6.468 -0.197,0.427 0.211,0.451 5.889,12.72 c -1.136,0.334 -2.219,0.693 -3.206,1.075 -2.031,-3.866 -4.554,-8.798 -6.742,-13.131 l 0.012,-0.004 4.31,-8.82 c 11.228,-8.607 25.013,-13.679 39.444,-14.164 2.202,3.303 5.777,8.711 7.294,11.241 m -53.594,12.436 c 2.918,5.799 5.286,10.414 7.097,13.828 -0.543,0.83 -1.147,2.229 -1.776,3.965 l -1.097,-0.505 -0.805,-0.371 -0.202,-0.092 c -0.067,-0.029 -0.14,-0.067 -0.161,-0.083 -0.074,-0.051 -0.162,-0.143 -0.239,-0.25 -0.313,-0.432 -0.551,-0.978 -0.783,-1.507 -0.228,-0.537 -0.44,-1.086 -0.651,-1.636 -0.422,-1.101 -0.834,-2.212 -1.295,-3.312 -0.468,-1.097 -0.959,-2.196 -1.675,-3.223 l -0.306,-0.441 -0.37,0.394 -1.164,1.241 c -0.392,0.411 -0.729,0.868 -1.096,1.3 -0.372,0.431 -0.699,0.892 -1.032,1.35 -0.334,0.459 -0.673,0.913 -0.97,1.394 -0.304,0.478 -0.627,0.943 -0.916,1.431 l -0.853,1.467 c -0.532,0.997 -1.077,1.989 -1.546,3.017 -0.5,1.014 -0.928,2.058 -1.377,3.095 -0.412,1.05 -0.837,2.096 -1.205,3.163 -0.391,1.058 -0.724,2.136 -1.076,3.208 -0.324,1.078 -0.653,2.156 -0.941,3.246 -0.308,1.085 -0.569,2.18 -0.838,3.273 -0.26,1.096 -0.507,2.195 -0.734,3.298 -0.225,1.103 -0.449,2.206 -0.641,3.316 -0.204,1.107 -0.383,2.218 -0.558,3.331 -0.333,2.156 -0.612,4.32 -0.844,6.492 -0.645,-0.68 -1.256,-1.316 -1.749,-1.823 -0.424,-7.483 0.378,-15.158 2.566,-22.757 2.683,-9.321 7.189,-17.628 13.015,-24.66 z m -17.863,18.613 c 0,0 -0.787,1.296 -9.845,-0.857 -6.363,-1.774 -14.016,-5.985 -14.016,-5.985 9.016,0.877 23.861,6.842 23.861,6.842 m -14.115,3.114 c 0,0 -0.445,1.905 -12.417,2.897 -8.518,0.38 -19.593,-1.714 -19.593,-1.714 11.411,-2.543 32.01,-1.183 32.01,-1.183 m -22.595,10.452 c 0,0 -0.099,1.953 -11.705,5.056 -8.315,1.884 -19.586,1.791 -19.586,1.791 10.777,-4.529 31.291,-6.847 31.291,-6.847 m 25.46,-6.834 c -0.122,0.071 -0.238,0.142 -0.363,0.214 -5.272,3.105 -12.597,6.934 -19.911,10.777 -7.32,3.838 -14.632,7.726 -20,10.845 -1.343,0.779 -2.566,1.507 -3.641,2.165 -1.074,0.661 -2.006,1.241 -2.763,1.742 -0.761,0.489 -1.346,0.891 -1.744,1.166 -0.399,0.275 -0.612,0.42 -0.612,0.42 0,0 0.223,-0.131 0.64,-0.375 0.416,-0.247 1.03,-0.605 1.822,-1.039 0.785,-0.442 1.757,-0.954 2.871,-1.536 1.116,-0.578 2.383,-1.214 3.772,-1.894 5.56,-2.72 13.103,-6.065 20.675,-9.371 5.901,-2.583 11.804,-5.153 16.786,-7.483 -11.436,7.888 -30.263,17.146 -52.474,25.912 0,0 4.092,-11.192 54.942,-31.543 m -60.805,31.275 c -1.457,1.327 -3.214,2.909 -5.258,4.725 -13.305,5.249 -24.146,10.814 -48.542,21.495 5.871,-11.223 31.122,-21.506 46.572,-26.907 -0.583,0.314 -1.172,0.63 -1.774,0.953 -1.392,0.749 -2.832,1.522 -4.294,2.308 -1.46,0.789 -2.951,1.573 -4.426,2.39 -2.938,1.655 -5.876,3.309 -8.63,4.861 -1.376,0.774 -2.705,1.522 -3.965,2.232 -1.244,0.737 -2.42,1.433 -3.505,2.076 -4.338,2.579 -7.229,4.298 -7.229,4.298 0,0 3.031,-1.461 7.579,-3.65 1.137,-0.546 2.371,-1.138 3.674,-1.762 1.316,-0.598 2.705,-1.226 4.14,-1.877 2.867,-1.298 5.926,-2.683 8.984,-4.068 1.533,-0.683 3.084,-1.33 4.601,-1.988 1.517,-0.651 3.012,-1.293 4.458,-1.914 1.445,-0.62 2.842,-1.219 4.167,-1.788 1.206,-0.54 2.369,-0.959 3.448,-1.384 m -3.635,9.606 c 0,0 -0.496,0.979 -1.668,2.709 -0.272,0.126 -0.991,0.461 -2.075,0.966 -0.697,0.327 -1.545,0.724 -2.518,1.18 -0.956,0.473 -2.035,1.007 -3.213,1.591 -1.179,0.579 -2.452,1.211 -3.781,1.909 -1.333,0.69 -2.74,1.416 -4.195,2.168 -1.442,0.773 -2.933,1.571 -4.447,2.381 -1.516,0.811 -3.052,1.636 -4.571,2.496 -1.523,0.85 -3.046,1.699 -4.544,2.536 -1.485,0.863 -2.946,1.711 -4.36,2.532 -1.409,0.829 -2.784,1.601 -4.055,2.402 -1.277,0.786 -2.485,1.529 -3.598,2.214 -0.557,0.343 -1.09,0.671 -1.596,0.982 -0.497,0.328 -0.967,0.64 -1.41,0.931 -0.884,0.585 -1.655,1.095 -2.29,1.515 -1.271,0.839 -1.996,1.319 -1.996,1.319 0,0 0.764,-0.417 2.1,-1.147 0.668,-0.364 1.48,-0.806 2.411,-1.315 0.465,-0.254 0.961,-0.523 1.483,-0.809 0.531,-0.267 1.089,-0.547 1.67,-0.841 1.163,-0.585 2.423,-1.221 3.754,-1.893 1.321,-0.684 2.758,-1.337 4.225,-2.041 1.471,-0.696 2.992,-1.414 4.538,-2.144 1.556,-0.704 3.138,-1.418 4.72,-2.134 1.577,-0.724 3.17,-1.413 4.74,-2.088 1.568,-0.676 3.11,-1.34 4.604,-1.984 1.501,-0.621 2.952,-1.222 4.328,-1.793 1.373,-0.578 2.681,-1.093 3.889,-1.566 0.156,-0.061 0.305,-0.12 0.458,-0.18 -0.527,0.584 -1.078,1.181 -1.672,1.805 -12.252,5.003 -54.278,28.614 -54.278,28.614 5.065,-18.515 63.347,-40.315 63.347,-40.315 m -8.824,17.335 c 0,0 -0.238,1.173 -1.265,3.274 -0.388,0.188 -1.047,0.506 -1.942,0.938 -0.738,0.364 -1.655,0.785 -2.668,1.305 -0.998,0.533 -2.126,1.132 -3.355,1.788 -1.233,0.65 -2.562,1.359 -3.94,2.147 -1.385,0.777 -2.846,1.596 -4.357,2.443 -1.498,0.867 -3.046,1.762 -4.618,2.671 -1.57,0.915 -3.171,1.829 -4.75,2.784 -1.583,0.944 -3.166,1.889 -4.724,2.819 -1.561,0.924 -3.075,1.873 -4.551,2.768 -2.954,1.791 -5.687,3.508 -8.024,4.983 -2.349,1.456 -4.265,2.73 -5.619,3.602 -1.351,0.878 -2.122,1.38 -2.122,1.38 0,0 0.809,-0.438 2.226,-1.205 1.419,-0.762 3.432,-1.88 5.886,-3.142 2.444,-1.281 5.295,-2.769 8.379,-4.316 1.541,-0.773 3.12,-1.596 4.747,-2.391 1.624,-0.799 3.272,-1.613 4.92,-2.426 1.645,-0.822 3.309,-1.602 4.939,-2.385 1.632,-0.777 3.237,-1.542 4.792,-2.281 1.562,-0.718 3.072,-1.413 4.503,-2.072 1.428,-0.67 2.788,-1.262 4.046,-1.803 0.671,-0.29 1.308,-0.567 1.916,-0.83 -0.703,0.911 -1.49,1.873 -2.376,2.885 -25.36,12.423 -60.916,34.32 -60.916,34.32 7.294,-23.379 68.873,-47.256 68.873,-47.256 m -5.831,19.087 c 0,0 -0.243,0.616 -0.92,1.858 -0.37,0.186 -1.14,0.571 -2.251,1.129 -0.773,0.417 -1.712,0.923 -2.787,1.504 -1.056,0.601 -2.248,1.277 -3.547,2.017 -1.282,0.759 -2.685,1.562 -4.141,2.449 -1.457,0.884 -3,1.806 -4.572,2.795 -1.583,0.973 -3.207,1.997 -4.848,3.048 -1.649,1.038 -3.301,2.13 -4.961,3.207 -1.648,1.096 -3.295,2.194 -4.916,3.274 -1.604,1.108 -3.199,2.168 -4.709,3.249 -1.517,1.065 -2.982,2.1 -4.348,3.114 -1.38,0.993 -2.656,1.973 -3.832,2.879 -1.189,0.886 -2.222,1.78 -3.162,2.531 -0.934,0.762 -1.701,1.496 -2.353,2.06 -0.64,0.579 -1.085,1.095 -1.417,1.417 -0.322,0.332 -0.494,0.509 -0.494,0.509 0,0 0.184,-0.163 0.531,-0.47 0.355,-0.298 0.837,-0.779 1.519,-1.309 0.694,-0.515 1.497,-1.175 2.48,-1.864 0.993,-0.677 2.076,-1.483 3.325,-2.276 1.234,-0.812 2.572,-1.689 4.016,-2.571 1.429,-0.906 2.961,-1.824 4.546,-2.77 1.577,-0.959 3.242,-1.894 4.913,-2.873 1.689,-0.952 3.404,-1.918 5.119,-2.885 1.728,-0.945 3.445,-1.905 5.157,-2.812 1.706,-0.92 3.389,-1.813 5.026,-2.659 1.63,-0.862 3.223,-1.661 4.728,-2.425 1.503,-0.768 2.941,-1.453 4.257,-2.108 0.734,-0.347 1.429,-0.676 2.091,-0.99 -0.812,1.125 -1.723,2.346 -2.77,3.689 -14.373,7.335 -61.926,39.978 -61.926,39.978 0.987,-22.463 70.246,-52.695 70.246,-52.695 m -9.307,20.843 c 0,0 -0.639,1.341 -1.829,3.711 -0.103,0.055 -0.202,0.107 -0.312,0.165 -0.794,0.455 -1.758,1.006 -2.863,1.639 -1.073,0.662 -2.298,1.394 -3.607,2.219 -1.295,0.839 -2.721,1.719 -4.186,2.704 -1.471,0.976 -3.026,2 -4.608,3.093 -1.592,1.078 -3.222,2.213 -4.87,3.375 -1.657,1.149 -3.311,2.359 -4.978,3.548 -1.651,1.212 -3.301,2.422 -4.926,3.614 -1.607,1.218 -3.206,2.389 -4.72,3.57 -1.52,1.17 -2.989,2.302 -4.359,3.404 -1.384,1.085 -2.668,2.144 -3.849,3.125 -1.194,0.962 -2.24,1.91 -3.186,2.719 -0.945,0.814 -1.722,1.583 -2.384,2.184 -0.654,0.608 -1.113,1.142 -1.452,1.479 -0.331,0.347 -0.507,0.532 -0.507,0.532 0,0 0.189,-0.171 0.543,-0.494 0.364,-0.311 0.86,-0.812 1.557,-1.371 0.703,-0.551 1.521,-1.253 2.52,-1.994 1.001,-0.739 2.103,-1.599 3.359,-2.473 1.244,-0.889 2.594,-1.847 4.048,-2.827 1.439,-0.997 2.981,-2.017 4.575,-3.07 1.587,-1.063 3.262,-2.113 4.942,-3.207 1.7,-1.066 3.425,-2.15 5.151,-3.234 1.74,-1.062 3.465,-2.143 5.191,-3.163 1.716,-1.034 3.411,-2.04 5.064,-2.993 1.642,-0.969 3.249,-1.868 4.769,-2.725 1.515,-0.867 2.973,-1.628 4.304,-2.361 0.445,-0.238 0.875,-0.461 1.297,-0.68 -0.358,0.678 -0.726,1.377 -1.115,2.107 -15.201,8.893 -67.842,50.211 -67.842,50.211 -3.137,-20.848 74.273,-62.807 74.273,-62.807 m -3.524,17.541 c -0.289,0.34 -0.563,0.7 -0.829,1.065 -0.1,0.141 -0.198,0.284 -0.295,0.426 -0.155,0.224 -0.305,0.451 -0.45,0.681 -0.118,0.185 -0.233,0.37 -0.345,0.557 -0.109,0.184 -0.213,0.368 -0.318,0.553 -0.121,0.217 -0.246,0.434 -0.362,0.653 0,0.002 -0.001,0.002 -0.002,0.004 -1.143,0.875 -2.533,1.923 -3.377,2.515 -0.81,0.567 -1.793,1.258 -2.921,2.048 -1.125,0.794 -2.317,1.756 -3.657,2.767 -1.331,1.021 -2.771,2.125 -4.295,3.294 -1.492,1.202 -3.066,2.469 -4.693,3.779 -1.625,1.313 -3.318,2.651 -4.989,4.069 -1.683,1.403 -3.391,2.83 -5.099,4.257 -1.718,1.412 -3.387,2.886 -5.05,4.31 -1.656,1.432 -3.287,2.84 -4.864,4.204 -1.556,1.388 -3.06,2.731 -4.486,4.004 -0.712,0.635 -1.405,1.254 -2.076,1.852 -0.668,0.603 -1.297,1.209 -1.909,1.777 -1.218,1.141 -2.334,2.186 -3.325,3.113 -1.006,0.906 -1.79,1.79 -2.478,2.477 -1.354,1.393 -2.128,2.188 -2.128,2.188 0,0 0.825,-0.742 2.27,-2.045 0.732,-0.638 1.574,-1.471 2.639,-2.307 1.045,-0.857 2.224,-1.822 3.511,-2.876 0.645,-0.525 1.305,-1.08 2.009,-1.635 0.708,-0.552 1.439,-1.122 2.191,-1.709 1.503,-1.172 3.088,-2.408 4.729,-3.687 1.659,-1.253 3.376,-2.547 5.118,-3.862 1.749,-1.308 3.504,-2.663 5.307,-3.955 1.792,-1.306 3.584,-2.61 5.349,-3.895 1.753,-1.297 3.522,-2.513 5.22,-3.708 1.699,-1.193 3.341,-2.344 4.899,-3.436 1.579,-1.053 3.071,-2.048 4.449,-2.966 1.381,-0.905 2.629,-1.782 3.767,-2.475 0.331,-0.201 0.646,-0.392 0.953,-0.579 -0.295,1.057 -0.433,1.717 -0.433,1.717 l -80.871,70.871 c 0,0 -7.741,-22.993 86.841,-84.046 m 2.534,5.768 c 0,0 -0.133,-12.715 77.466,-57.366 -1.022,0.769 -2.08,1.565 -3.177,2.391 -1.917,1.41 -3.938,2.897 -6.027,4.435 -4.196,3.062 -8.687,6.311 -13.2,9.531 -18.033,12.909 -36.289,25.527 -36.289,25.527 0,0 18.896,-11.629 37.609,-23.575 4.683,-2.98 9.347,-5.991 13.71,-8.834 2.177,-1.429 4.281,-2.812 6.277,-4.124 1.985,-1.335 3.862,-2.595 5.594,-3.76 1.101,-0.764 2.141,-1.469 3.117,-2.145 -15.627,18.493 -85.08,57.92 -85.08,57.92 m 24.758,-74.522 c 1.583,-2.568 10.511,-12.459 59.827,-33.761 -0.194,0.111 -0.385,0.224 -0.586,0.337 -5.116,2.934 -12.246,6.517 -19.358,10.128 -7.121,3.602 -14.226,7.275 -19.427,10.256 -2.604,1.484 -4.73,2.795 -6.194,3.751 -0.736,0.471 -1.301,0.861 -1.685,1.128 -0.385,0.263 -0.59,0.405 -0.59,0.405 0,0 0.214,-0.125 0.619,-0.362 0.403,-0.236 0.995,-0.584 1.761,-0.998 1.525,-0.841 3.735,-1.989 6.43,-3.272 5.388,-2.579 12.712,-5.705 20.073,-8.77 6.23,-2.603 12.466,-5.183 17.558,-7.505 -11.846,8.406 -32.296,17.942 -58.239,29.139 z m 53.683,-20.817 c -0.793,0.542 -1.617,1.103 -2.464,1.685 -1.572,1.045 -3.23,2.147 -4.944,3.287 -3.445,2.265 -7.143,4.654 -10.852,7.031 -7.416,4.755 -14.863,9.479 -20.402,13.095 -1.382,0.908 -2.649,1.74 -3.772,2.478 -1.116,0.749 -2.098,1.388 -2.89,1.937 -1.589,1.091 -2.497,1.716 -2.497,1.716 0,0 0.948,-0.563 2.606,-1.546 0.827,-0.495 1.85,-1.066 3.011,-1.736 1.168,-0.662 2.485,-1.407 3.924,-2.22 5.761,-3.234 13.501,-7.446 21.225,-11.7 3.863,-2.126 7.721,-4.267 11.325,-6.308 1.799,-1.028 3.538,-2.024 5.188,-2.968 1.638,-0.972 3.196,-1.87 4.618,-2.745 0.669,-0.412 1.31,-0.804 1.924,-1.183 -11.276,10.596 -34.772,23.624 -67.081,39.037 0,0 -0.515,-10.037 61.081,-39.86 m -52.879,47.815 c 0,0 4.064,-2.472 10.229,-6.059 6.167,-3.59 14.388,-8.376 22.612,-13.162 4.107,-2.403 8.205,-4.829 12.034,-7.129 1.912,-1.16 3.759,-2.282 5.512,-3.345 1.74,-1.089 3.394,-2.1 4.907,-3.072 0.33,-0.215 0.653,-0.422 0.972,-0.627 -11.997,11.36 -37.152,25.783 -70.289,43.471 0,0 -0.558,-9.902 66.98,-46.059 -1.4,1.027 -2.943,2.109 -4.561,3.265 -1.672,1.164 -3.438,2.391 -5.264,3.659 -3.667,2.524 -7.598,5.192 -11.545,7.842 -7.909,5.285 -15.818,10.57 -21.749,14.533 -5.934,3.964 -9.838,6.683 -9.838,6.683 m -20.814,31.072 c 0,0 -6.956,-8.511 74.753,-55.65 -1.588,1.188 -3.303,2.469 -5.117,3.825 -1.882,1.375 -3.867,2.825 -5.921,4.326 -4.124,2.984 -8.535,6.152 -12.97,9.292 -8.863,6.291 -17.775,12.516 -24.47,17.169 -6.702,4.646 -11.17,7.745 -11.17,7.745 0,0 0.019,-0.011 0.054,-0.033 0.533,-0.329 5.008,-3.086 11.518,-7.096 6.94,-4.285 16.179,-10.02 25.379,-15.827 4.602,-2.899 9.188,-5.828 13.478,-8.594 2.14,-1.391 4.208,-2.737 6.171,-4.013 l 5.496,-3.665 c 1.691,-1.163 3.252,-2.193 4.613,-3.18 0.056,-0.04 0.105,-0.076 0.157,-0.114 0.002,10e-4 0.006,10e-4 0.009,0.002 0.017,0.005 0.036,0.008 0.056,0.011 -12.52,13.508 -45.376,33.452 -82.036,55.802 m 97.911,-77.589 c 0.039,-0.651 0.072,-1.304 0.12,-1.953 0.162,-2.208 0.377,-4.414 0.647,-6.615 0.138,-1.1 0.28,-2.199 0.446,-3.294 0.155,-1.098 0.339,-2.19 0.528,-3.281 0.189,-1.092 0.399,-2.18 0.62,-3.266 0.231,-1.082 0.454,-2.168 0.722,-3.242 0.251,-1.079 0.54,-2.147 0.825,-3.216 0.309,-1.062 0.605,-2.13 0.956,-3.178 0.327,-1.056 0.712,-2.093 1.082,-3.136 0.406,-1.025 0.795,-2.061 1.253,-3.067 0.426,-1.019 0.926,-2.002 1.415,-2.991 l 0.786,-1.455 c 0.267,-0.483 0.564,-0.946 0.846,-1.419 0.274,-0.48 0.592,-0.93 0.901,-1.384 0.309,-0.456 0.613,-0.915 0.959,-1.343 0.344,-0.429 0.657,-0.884 1.024,-1.294 l 0.726,-0.823 c 0.52,0.786 0.957,1.663 1.364,2.547 0.487,1.065 0.932,2.156 1.39,3.249 0.228,0.546 0.461,1.093 0.713,1.635 0.259,0.542 0.507,1.084 0.902,1.601 0.101,0.128 0.218,0.256 0.39,0.367 0.104,0.062 0.166,0.085 0.234,0.114 l 0.204,0.087 0.817,0.345 1.141,0.483 c -2.307,6.535 -4.881,17.339 -5.828,21.278 -5.638,3.802 -11.289,9.875 -14.673,13.819 -0.163,-0.183 -0.335,-0.375 -0.51,-0.568 m 2.152,2.62 c 3.181,-3.726 8.674,-9.712 14.04,-13.449 5.654,5.07 15.802,10.636 21.388,12.903 1.225,13.973 4.478,24.387 6.679,30.104 -2.255,2.042 -8.712,7.563 -11.671,10.089 -8.868,-3.275 -17.125,-8.114 -24.299,-14.286 -2.907,-7.761 -5.691,-18.263 -6.137,-25.361 m 9.63,33.057 c -0.401,-1.475 -0.943,-1.68 -1.447,-2.768 6.558,4.997 13.879,8.956 21.622,11.785 4.601,6.144 9.395,10.701 14.086,13.309 -0.201,-0.056 -0.402,-0.239 -0.601,-0.297 -13.671,-3.937 -25.107,-12.444 -33.662,-22.029 z m 18.955,-77.732 -6.199,-12.541 2.488,-5.792 c 1.162,-0.651 2.364,-1.285 3.565,-1.892 1.302,-0.658 2.617,-1.292 3.942,-1.902 2.65,-1.22 5.349,-2.335 8.094,-3.311 0.687,-0.236 1.374,-0.482 2.069,-0.696 0.691,-0.226 1.39,-0.428 2.087,-0.631 0.7,-0.19 1.4,-0.388 2.107,-0.547 0.704,-0.176 1.414,-0.313 2.125,-0.457 0.712,-0.12 1.425,-0.246 2.14,-0.325 0.359,-0.052 0.717,-0.084 1.074,-0.112 0.359,-0.028 0.719,-0.063 1.077,-0.067 0.718,-0.036 1.433,-0.02 2.146,0.017 l 1.061,0.1 0.833,0.143 1.216,2.218 c 0.215,0.406 0.457,0.801 0.65,1.216 l 0.449,0.952 c -1.032,0.82 -2.033,1.659 -3.024,2.518 -1.076,0.939 -2.132,1.901 -3.166,2.887 -2.068,1.968 -4.048,4.033 -5.881,6.224 -0.449,0.556 -0.906,1.105 -1.334,1.677 -0.441,0.562 -0.847,1.15 -1.261,1.732 -0.398,0.594 -0.794,1.189 -1.156,1.805 -0.191,0.303 -0.362,0.617 -0.531,0.932 -0.171,0.314 -0.345,0.626 -0.493,0.951 -0.321,0.64 -0.59,1.304 -0.844,1.971 l -0.262,0.822 c -4.013,0.31 -8.739,1.049 -12.972,2.108 m 59.116,25.591 c 0.014,0.059 0.066,0.15 0.108,0.222 l 0.124,0.175 c 0.168,0.227 0.348,0.436 0.528,0.647 0.725,0.834 1.481,1.635 2.24,2.433 0.097,0.1 0.194,0.198 0.29,0.299 -0.651,0.628 -1.254,1.212 -1.786,1.733 -3.742,-1.491 -7.7,-2.803 -11.644,-3.939 -7.114,-2.045 -14.166,-3.529 -19.768,-4.495 -0.86,-3.858 -3.489,-10.432 -5.982,-16.601 0.487,-0.645 0.969,-1.293 1.461,-1.932 0.861,-1.119 1.74,-2.22 2.622,-3.322 0.889,-1.093 1.784,-2.183 2.702,-3.252 0.451,-0.542 0.916,-1.07 1.382,-1.597 0.47,-0.525 0.923,-1.064 1.406,-1.575 l 1.431,-1.55 1.469,-1.508 c 0.485,-0.508 0.992,-0.99 1.5,-1.47 0.509,-0.479 1.005,-0.978 1.539,-1.423 0.53,-0.452 1.043,-0.929 1.584,-1.36 l 1.361,-1.055 2.506,0.499 c 0.481,0.095 0.961,0.182 1.435,0.318 l 1.426,0.373 1.426,0.373 c 0.478,0.115 0.947,0.271 1.418,0.414 l 2.827,0.872 2.802,0.962 c 0.938,0.31 1.856,0.68 2.785,1.017 0.929,0.337 1.845,0.708 2.764,1.07 0.834,0.327 1.663,0.675 2.483,1.024 l 5.431,21.098 -4.318,4.767 c -1.467,1.646 -2.932,3.289 -4.341,4.989 -0.35,0.429 -0.701,0.851 -1.018,1.319 -0.04,0.06 -0.081,0.115 -0.115,0.186 -0.018,0.035 -0.037,0.063 -0.054,0.105 -0.014,0.06 -0.043,0.104 -0.024,0.184 m -42.862,48.51 c -2.128,-5.395 -5.637,-16.108 -6.876,-30.532 3.501,-3.557 14.696,-13.796 19.178,-18.388 8.489,1.471 20.545,4.165 30.814,8.203 0.779,3.72 3.725,16.314 5.317,23.099 l -6.675,1.247 -2.541,-20.702 -0.034,-0.268 -0.271,-0.056 -25.648,-5.272 -0.357,-0.073 -0.265,0.272 c -1.56,1.612 -3.092,3.248 -4.631,4.879 -1.539,1.629 -3.041,3.329 -4.565,4.992 -0.781,0.826 -1.467,1.702 -2.187,2.56 l -1.074,1.293 -0.535,0.644 -0.269,0.324 -0.134,0.162 c -0.1,0.132 -0.157,0.241 -0.222,0.363 -0.196,0.447 -0.226,0.784 -0.263,1.117 -0.032,0.333 -0.031,0.639 -0.028,0.946 0.014,0.606 0.069,1.187 0.136,1.762 0.14,1.15 0.335,2.271 0.551,3.384 0.885,4.447 2.048,8.786 3.253,13.114 0.792,2.817 1.625,5.617 2.476,8.412 -1.933,-0.556 -3.702,-1.065 -5.15,-1.482 m 8.024,2.31 c -1.095,-3.279 -2.164,-6.572 -3.175,-9.876 -1.293,-4.268 -2.545,-8.558 -3.505,-12.874 -0.235,-1.078 -0.449,-2.16 -0.601,-3.23 -0.076,-0.535 -0.137,-1.067 -0.16,-1.58 -0.009,-0.253 -0.014,-0.508 0.004,-0.733 0.012,-0.221 0.053,-0.449 0.087,-0.516 l 1.945,-2.464 c 0.701,-0.871 1.376,-1.772 2.117,-2.592 1.464,-1.669 2.889,-3.359 4.388,-5.017 1.415,-1.57 2.826,-3.145 4.259,-4.698 l 25.117,4.575 2.99,20.512 0.023,0.154 0.149,-0.031 6.802,-1.43 c 0.481,2.052 0.838,3.559 0.962,4.086 -9.743,11.316 -19.299,17.625 -24.569,20.56 -3.776,-1.087 -10.718,-3.086 -16.833,-4.846 m 6.004,26.08 c 4.995,-0.844 9.244,-2.912 12.084,-4.119 3.039,0.474 7.135,0.999 11.166,1.17 -7.418,2.264 -15.275,3.313 -23.25,2.949 m 40.653,-37.458 0.153,0.012 10.345,0.833 -2.306,13.268 c -2.671,2.276 -5.387,4.512 -8.147,6.675 -1.403,1.101 -2.826,2.175 -4.268,3.203 -0.719,0.514 -1.457,1.013 -2.183,1.473 -0.37,0.214 -0.686,0.442 -1.096,0.646 l -0.597,0.311 c -0.11,0.039 -0.261,0.107 -0.445,0.144 -0.726,0.179 -1.606,0.242 -2.462,0.273 -0.868,0.028 -1.744,0.019 -2.626,-0.003 -1.763,-0.05 -3.535,-0.17 -5.308,-0.315 -2.327,-0.197 -4.658,-0.443 -6.982,-0.723 0.011,-3.162 -0.203,-6.378 -0.905,-8.292 5.882,-3.475 15.171,-10.11 24.588,-21.417 0.766,0.036 1.581,0.061 2.436,0.071 l -0.19,3.692 z m -26.131,31.101 c 0.064,-0.871 0.119,-1.84 0.156,-2.851 2.293,0.196 4.586,0.36 6.89,0.478 1.802,0.088 3.61,0.149 5.43,0.141 0.912,-0.007 1.825,-0.029 2.75,-0.09 0.928,-0.07 1.848,-0.148 2.858,-0.429 0.251,-0.064 0.516,-0.17 0.812,-0.314 l 0.586,-0.33 c 0.387,-0.208 0.8,-0.505 1.196,-0.756 0.77,-0.526 1.5,-1.056 2.221,-1.609 1.44,-1.1 2.841,-2.234 4.22,-3.391 2.757,-2.315 5.45,-4.686 8.106,-7.111 l 0.157,-0.142 0.027,-0.194 1.942,-13.91 0.052,-0.369 -0.36,-0.016 -10.591,-0.499 0.063,-3.548 c 4.455,0.043 10.046,-0.333 16.345,-1.787 0.01,7.285 -2.137,16.358 -3.254,20.587 -6.52,7.176 -14.475,12.864 -23.267,16.727 -4.431,0.692 -11.018,0.145 -16.339,-0.587 m 43.353,-20.638 c 1.219,-5.518 2.47,-12.999 1.969,-18.87 3,-6.388 5.664,-15.353 6.221,-26.529 -0.03,-0.062 -0.066,-0.124 -0.098,-0.184 l 5.809,0.922 c 0.348,7.292 -0.473,14.759 -2.602,22.156 -2.414,8.383 -6.303,15.951 -11.299,22.505 m 101.357,23.153 c -33.137,-17.688 -58.291,-32.111 -70.288,-43.471 0.318,0.205 0.641,0.412 0.972,0.627 1.512,0.972 3.165,1.983 4.906,3.072 1.752,1.063 3.599,2.185 5.512,3.345 3.83,2.3 7.927,4.726 12.035,7.129 8.222,4.786 16.445,9.572 22.611,13.162 6.165,3.587 10.228,6.059 10.228,6.059 0,0 -3.902,-2.719 -9.838,-6.683 -5.931,-3.963 -13.839,-9.248 -21.748,-14.533 -3.947,-2.65 -7.879,-5.318 -11.545,-7.842 -1.826,-1.268 -3.59,-2.495 -5.264,-3.659 -1.618,-1.156 -3.161,-2.238 -4.561,-3.265 67.536,36.157 66.98,46.059 66.98,46.059 m -5.822,-18.032 c -32.308,-15.413 -55.804,-28.441 -67.08,-39.037 0.614,0.379 1.254,0.771 1.923,1.183 1.423,0.875 2.981,1.773 4.619,2.745 1.651,0.944 3.389,1.94 5.188,2.968 3.603,2.041 7.462,4.182 11.324,6.308 7.726,4.254 15.464,8.466 21.226,11.7 1.438,0.813 2.755,1.558 3.924,2.22 1.161,0.67 2.183,1.241 3.01,1.736 1.659,0.983 2.608,1.546 2.608,1.546 0,0 -0.909,-0.625 -2.499,-1.716 -0.791,-0.549 -1.773,-1.188 -2.89,-1.937 -1.122,-0.738 -2.389,-1.57 -3.772,-2.478 -5.538,-3.616 -12.985,-8.34 -20.401,-13.095 -3.71,-2.377 -7.407,-4.766 -10.851,-7.031 -1.714,-1.14 -3.372,-2.242 -4.945,-3.287 -0.848,-0.582 -1.671,-1.143 -2.464,-1.685 61.597,29.823 61.08,39.86 61.08,39.86 m -19.382,-26.799 c 0,0 -0.208,-0.142 -0.593,-0.405 -0.385,-0.267 -0.948,-0.657 -1.684,-1.128 -1.464,-0.956 -3.59,-2.267 -6.195,-3.751 -5.2,-2.981 -12.306,-6.654 -19.426,-10.256 -7.112,-3.611 -14.242,-7.194 -19.357,-10.128 -0.203,-0.113 -0.394,-0.226 -0.587,-0.337 49.317,21.302 58.243,31.193 59.826,33.761 l -0.188,0.476 c -25.943,-11.197 -46.394,-20.733 -58.239,-29.139 5.092,2.322 11.329,4.902 17.558,7.505 7.361,3.065 14.685,6.191 20.072,8.77 2.695,1.283 4.906,2.431 6.431,3.272 0.766,0.414 1.358,0.762 1.761,0.998 0.405,0.237 0.621,0.362 0.621,0.362 m -50.04,10.024 c 0.019,-0.003 0.038,-0.006 0.056,-0.011 0.003,-0.001 0.006,-0.001 0.008,-0.002 0.051,0.038 0.101,0.074 0.156,0.114 1.362,0.987 2.922,2.017 4.614,3.18 1.704,1.135 3.546,2.364 5.497,3.665 1.962,1.276 4.03,2.622 6.171,4.013 4.289,2.766 8.874,5.695 13.478,8.594 9.199,5.807 18.438,11.542 25.377,15.827 6.943,4.277 11.573,7.129 11.573,7.129 0,0 -4.469,-3.099 -11.17,-7.745 -6.695,-4.653 -15.608,-10.878 -24.47,-17.169 -4.435,-3.14 -8.847,-6.308 -12.97,-9.292 -2.054,-1.501 -4.039,-2.951 -5.922,-4.326 -1.813,-1.356 -3.527,-2.637 -5.116,-3.825 81.709,47.139 74.753,55.65 74.753,55.65 -36.661,-22.35 -69.515,-42.294 -82.035,-55.802 m 1.703,14.334 c 0.976,0.676 2.015,1.381 3.118,2.145 1.732,1.165 3.608,2.425 5.593,3.76 1.997,1.312 4.1,2.695 6.277,4.124 4.363,2.843 9.028,5.854 13.709,8.834 18.713,11.946 37.61,23.575 37.61,23.575 0,0 -18.255,-12.618 -36.291,-25.527 -4.512,-3.22 -9.003,-6.469 -13.196,-9.531 -2.092,-1.538 -4.113,-3.025 -6.029,-4.435 -1.097,-0.826 -2.156,-1.622 -3.176,-2.391 77.597,44.651 77.465,57.366 77.465,57.366 0,0 -69.453,-39.427 -85.08,-57.92 m 87.614,52.152 c 94.582,61.053 86.841,84.046 86.841,84.046 l -80.87,-70.871 c 0,0 -0.139,-0.66 -0.434,-1.717 0.307,0.187 0.622,0.378 0.954,0.579 1.138,0.693 2.385,1.57 3.766,2.475 1.378,0.918 2.871,1.913 4.449,2.966 1.558,1.092 3.2,2.243 4.899,3.436 1.698,1.195 3.466,2.411 5.22,3.708 1.765,1.285 3.557,2.589 5.349,3.895 1.802,1.292 3.557,2.647 5.306,3.955 1.743,1.315 3.459,2.609 5.119,3.862 1.64,1.279 3.226,2.515 4.729,3.687 0.752,0.587 1.483,1.157 2.19,1.709 0.705,0.555 1.365,1.11 2.011,1.635 1.286,1.054 2.465,2.019 3.51,2.876 1.064,0.836 1.907,1.669 2.639,2.307 1.445,1.303 2.269,2.045 2.269,2.045 0,0 -0.772,-0.795 -2.128,-2.188 -0.687,-0.687 -1.471,-1.571 -2.478,-2.477 -0.989,-0.927 -2.107,-1.972 -3.324,-3.113 -0.612,-0.568 -1.241,-1.174 -1.91,-1.777 -0.67,-0.598 -1.363,-1.217 -2.075,-1.852 -1.427,-1.273 -2.931,-2.616 -4.487,-4.004 -1.577,-1.364 -3.206,-2.772 -4.864,-4.204 -1.663,-1.424 -3.332,-2.898 -5.049,-4.31 -1.708,-1.427 -3.416,-2.854 -5.099,-4.257 -1.67,-1.418 -3.364,-2.756 -4.989,-4.069 -1.627,-1.31 -3.201,-2.577 -4.693,-3.779 -1.524,-1.169 -2.964,-2.273 -4.295,-3.294 -1.34,-1.011 -2.532,-1.973 -3.657,-2.767 -1.129,-0.79 -2.111,-1.481 -2.922,-2.048 -0.842,-0.59 -2.232,-1.64 -3.377,-2.514 v -0.001 c -0.122,-0.231 -0.252,-0.46 -0.381,-0.689 -0.097,-0.17 -0.193,-0.34 -0.292,-0.508 -0.117,-0.195 -0.237,-0.388 -0.358,-0.579 -0.141,-0.224 -0.289,-0.444 -0.439,-0.662 -0.1,-0.147 -0.199,-0.294 -0.303,-0.438 -0.265,-0.364 -0.538,-0.724 -0.827,-1.063 m 78.24,52.625 c 4.35,-6.425 -2.304,-22.475 -13.995,-31.805 4.428,-4.657 0.391,-17.178 -6.937,-23.447 1.281,-5.421 -1.624,-15.702 -14.048,-26.231 4.855,-2.015 -10.503,-19.244 -16.693,-23.222 5.169,-2.73 -0.429,-13.978 -23.633,-27.377 -8.119,-4.69 -23.564,-11.225 -41.244,-18.654 -3.4,-1.431 37.284,2.962 33.753,1.473 -9.562,-4.033 -39.804,-11.871 -58.2,-16.884 -2.072,-0.565 26.421,-3.285 24.456,-3.848 -8.456,-2.426 -29.164,-5.602 -41.004,-6.976 -2.069,-0.241 8.899,-8.794 7.3,-8.795 -9,-0.01 -26.356,3.481 -33.255,4.551 -8.736,-17.465 -24.453,-31.374 -44.652,-37.189 -33.99,-9.787 -69.416,6.574 -84.691,37.135 -7.119,-1.129 -24.056,-4.506 -32.91,-4.497 -1.598,0.001 9.37,8.554 7.301,8.795 -11.84,1.374 -32.548,4.55 -41.004,6.976 -1.966,0.563 26.528,3.283 24.454,3.848 -18.393,5.013 -48.635,12.851 -58.199,16.884 -3.53,1.489 37.155,-2.904 33.754,-1.473 -17.681,7.429 -33.125,13.964 -41.245,18.654 -23.201,13.399 -28.801,24.647 -23.632,27.377 -6.19,3.978 -21.547,21.207 -16.693,23.222 -12.423,10.529 -15.328,20.81 -14.048,26.231 -7.328,6.269 -11.365,18.79 -6.938,23.447 -11.691,9.33 -18.344,25.38 -13.995,31.805 -16.133,16.261 -22.066,30.724 -20.542,50.881 0,0 68.698,-73.286 160.288,-125.722 45.784,-26.211 39.728,-27.21 34.281,-37.948 -1.325,-2.613 -2.545,-5.853 -3.183,-10.052 -0.052,-0.824 -0.33,-3.41 -0.408,-4.662 -0.199,-5.114 0.399,-11.413 2.32,-19.307 0.004,-0.004 0.016,-0.015 0.016,-0.015 l -0.01,-0.008 c 0.738,-3.036 1.67,-6.299 2.83,-9.828 0.124,-0.115 0.191,-0.177 0.191,-0.177 l -0.104,-0.094 c 0.135,-0.406 0.285,-0.832 0.425,-1.244 -4.523,34.815 16.97,68.764 51.719,78.77 38.324,11.033 78.477,-11.168 89.511,-49.488 2.996,-10.404 3.536,-20.942 1.976,-30.997 0.353,1.005 0.691,1.992 1.01,2.959 l -0.103,0.094 c 0,0 0.065,0.062 0.19,0.177 1.16,3.529 2.091,6.792 2.829,9.828 l -0.009,0.008 c 0,0 0.012,0.011 0.015,0.015 1.921,7.894 2.52,14.193 2.321,19.307 -0.078,1.252 -0.357,3.838 -0.407,4.662 -0.639,4.199 -1.86,7.439 -3.185,10.052 -5.446,10.738 -11.503,11.737 34.282,37.948 91.591,52.436 160.288,125.722 160.288,125.722 1.525,-20.157 -4.409,-34.62 -20.543,-50.881 m -296.487,-145.561 -11.278,12.224 -0.083,0.091 0.035,0.114 4.917,16.227 -4.478,-16.226 11.248,-11.6 15.291,10.234 4.726,22.947 -5.765,6.712 c -1.034,-0.471 -2.074,-0.959 -3.097,-1.465 -1.257,-0.622 -2.504,-1.27 -3.723,-1.948 -1.218,-0.68 -2.414,-1.393 -3.54,-2.162 -0.563,-0.384 -1.103,-0.786 -1.596,-1.206 -0.248,-0.208 -0.482,-0.422 -0.687,-0.638 -0.119,-0.115 -0.181,-0.2 -0.259,-0.286 -0.034,-0.033 -0.085,-0.1 -0.139,-0.178 l -0.155,-0.216 -2.075,1.519 0.16,0.212 c 0.05,0.068 0.106,0.141 0.194,0.239 0.155,0.18 0.321,0.368 0.461,0.498 0.292,0.292 0.589,0.549 0.89,0.791 0.601,0.485 1.214,0.916 1.833,1.319 1.241,0.806 2.506,1.516 3.784,2.192 1.279,0.669 2.571,1.303 3.872,1.91 1.306,0.606 2.606,1.182 3.947,1.739 l 0.75,0.312 0.503,-0.614 6.407,-7.848 0.304,-0.373 -0.102,-0.447 -5.465,-23.544 -0.062,-0.27 -0.221,-0.139 -16.064,-10.183 -0.301,-0.19 z"
           style="fill:#000000;fill-opacity:1;fill-rule:nonzero;stroke:none"
           id="path7051"
           inkscape:connector-curvature="0" /></g></g></g></svg>