<?xml version="1.0" standalone="no"?>
<!DOCTYPE svg PUBLIC "-//W3C//DTD SVG 20010904//EN"
 "http://www.w3.org/TR/2001/REC-SVG-20010904/DTD/svg10.dtd">
<svg version="1.0" xmlns="http://www.w3.org/2000/svg"
 width="351.000000pt" height="135.000000pt" viewBox="0 0 351.000000 135.000000"
 preserveAspectRatio="xMidYMid meet">
<metadata>
Created by potrace 1.16, written by Peter Selinger 2001-2019
</metadata>
<g transform="translate(0.000000,135.000000) scale(0.100000,-0.100000)"
fill="#000000" stroke="none">
<path d="M506 1335 c-79 -20 -172 -66 -245 -121 -102 -77 -175 -177 -227 -316
-27 -68 -28 -83 -29 -223 0 -131 3 -158 23 -215 72 -201 217 -348 424 -426 68
-27 83 -28 223 -29 131 0 158 3 215 23 201 72 348 217 426 424 27 68 28 83 29
223 0 131 -3 158 -23 215 -72 202 -219 349 -424 426 -63 23 -91 28 -203 30
-91 2 -148 -1 -189 -11z m277 -304 c36 -19 38 -18 75 0 91 47 180 -36 152
-143 -9 -33 -29 -61 -90 -120 -47 -47 -87 -78 -99 -78 -33 0 -167 133 -187
185 -34 89 9 161 101 174 6 0 27 -8 48 -18z m-29 -381 c29 -29 29 -65 2 -97
l-26 -31 33 -13 c17 -8 38 -12 45 -11 7 2 61 32 119 68 77 46 112 62 127 58
61 -19 63 -67 6 -124 -41 -41 -206 -167 -249 -189 -30 -16 -66 -3 -266 98
-133 67 -158 76 -220 81 l-70 5 -3 73 c-2 47 1 79 9 88 18 22 471 16 493 -6z"/>
<path d="M696 968 c-31 -44 -15 -86 62 -162 38 -37 55 -47 70 -42 28 9 121
112 128 143 9 34 -10 71 -41 79 -21 5 -33 0 -59 -25 -17 -17 -36 -31 -40 -31
-4 0 -21 14 -36 30 -33 36 -63 38 -84 8z"/>
<path d="M310 580 c0 -28 2 -30 40 -30 30 0 78 -19 191 -75 83 -42 172 -85
199 -95 l49 -19 98 73 c54 41 109 86 123 101 27 30 23 29 -58 -23 -30 -18 -76
-44 -104 -57 -60 -28 -76 -24 -176 34 -51 29 -82 41 -110 41 -29 0 -42 5 -46
17 -12 31 21 43 116 43 52 0 88 4 88 10 0 6 -75 10 -205 10 l-205 0 0 -30z"/>
<path d="M2586 886 c-54 -20 -85 -45 -121 -95 -37 -53 -47 -148 -20 -216 20
-54 88 -117 143 -133 79 -24 176 -9 218 33 21 21 24 33 24 103 0 101 -10 112
-103 112 -56 0 -68 -3 -81 -21 -26 -38 -3 -69 52 -69 31 0 32 -2 32 -40 0 -38
-1 -40 -32 -41 -84 -3 -115 11 -155 71 -44 64 -21 157 49 200 36 22 107 27
139 9 38 -20 79 14 64 53 -15 39 -141 59 -209 34z"/>
<path d="M1617 884 c-16 -16 -3 -58 76 -244 l83 -195 34 0 33 0 84 195 c46
109 82 206 81 220 -3 21 -8 25 -37 25 l-35 0 -53 -135 c-29 -74 -56 -143 -61
-154 -6 -14 -23 17 -73 135 -62 146 -67 154 -95 157 -16 2 -33 0 -37 -4z"/>
<path d="M2116 767 c-73 -41 -107 -148 -72 -230 42 -102 183 -140 271 -72 84
63 96 185 28 266 -52 62 -154 78 -227 36z m158 -88 c56 -66 15 -169 -67 -169
-77 0 -119 119 -62 175 37 38 95 35 129 -6z"/>
<path d="M2907 777 c-16 -11 -17 -30 -15 -172 l3 -160 35 0 35 0 5 110 c7 148
20 169 98 158 38 -5 41 -3 48 21 4 16 1 32 -6 41 -17 21 -83 19 -110 -3 -23
-18 -24 -18 -42 0 -21 21 -28 22 -51 5z"/>
<path d="M3219 767 c-112 -76 -116 -229 -8 -309 56 -42 159 -35 214 13 94 83
80 239 -26 298 -52 30 -135 28 -180 -2z m155 -88 c37 -44 36 -101 -3 -140 -40
-39 -82 -39 -122 0 -22 23 -29 39 -29 69 0 93 98 138 154 71z"/>
</g>
</svg>
